#!OML:ASF F:\VICON\USERDATA\INSTALL\rory3\rory3.ASF
:FULLY-SPECIFIED
:DEGREES
369
root -0.0618307 18.0121 -0.85555 3.78892 -10.9756 1.66745
lowerback 0.0668198 -2.14162 -3.44944
upperback 0.810619 -2.86369 2.34802
thorax 1.08603 -1.47498 4.3211
lowerneck -26.3661 0.131692 -8.19245
upperneck 23.0146 2.64152 2.9742
head 11.7575 0.841437 2.92349
rclavicle -2.52457e-014 -5.56597e-015
rhumerus -30.468 -0.259928 -81.6419
rradius 31.9279
rwrist 19.2104
rhand -17.9922 8.22553
rfingers 7.12502
rthumb 8.27783 -21.5923
lclavicle -2.52457e-014 -5.56597e-015
lhumerus 8.19601 -15.4195 76.4377
lradius 84.8545
lwrist 5.53429
lhand -30.9109 29.9335
lfingers 7.12502
lthumb -4.19706 59.8719
rfemur -10.3649 9.32978 14.3335
rtibia 25.594
rfoot -15.9902 -3.65368
rtoes 4.54699
lfemur -1.19136 -2.10935 -22.209
ltibia 12.0957
lfoot -9.79944 6.9214
ltoes -13.3521
370
root -0.0611728 18.0132 -0.859324 3.83068 -10.9491 1.64058
lowerback -3.47923e-005 -2.1477 -3.48196
upperback 0.844233 -2.87059 2.40078
thorax 1.1633 -1.48145 4.39052
lowerneck -26.2668 0.0929528 -8.33299
upperneck 23.1407 2.63634 2.97261
head 11.7869 0.821691 2.94674
rclavicle -3.12092e-014 6.36111e-015
rhumerus -30.483 -0.539744 -81.4853
rradius 31.8786
rwrist 19.3373
rhand -18.109 8.49995
rfingers 7.12502
rthumb 8.16511 -21.3223
lclavicle -3.12092e-014 6.36111e-015
lhumerus 7.60679 -15.2826 77.0698
lradius 84.4299
lwrist 5.83152
lhand -30.9305 30.1153
lfingers 7.12502
lthumb -4.21603 60.0534
rfemur -10.4068 9.33619 14.362
rtibia 25.5929
rfoot -15.9968 -3.68262
rtoes 4.54048
lfemur -1.26094 -2.10585 -22.1727
ltibia 12.1113
lfoot -9.81059 6.86875
ltoes -13.4946
371
root -0.0601709 18.0126 -0.862396 3.85082 -10.9944 1.63298
lowerback -0.0321593 -2.13468 -3.46494
upperback 0.867408 -2.85227 2.38223
thorax 1.20145 -1.47323 4.36017
lowerneck -26.1392 0.089274 -8.38761
upperneck 23.2277 2.64798 2.95023
head 11.7961 0.815758 2.94944
rclavicle -8.31914e-014 7.15625e-015
rhumerus -30.5826 -0.657827 -81.4593
rradius 31.8571
rwrist 19.286
rhand -18.2842 8.77403
rfingers 7.12502
rthumb 7.99606 -21.0547
lclavicle -8.31914e-014 7.15625e-015
lhumerus 6.99498 -15.0851 77.6343
lradius 84.0137
lwrist 5.99367
lhand -30.9193 30.1898
lfingers 7.12502
lthumb -4.20519 60.128
rfemur -10.464 9.3133 14.355
rtibia 25.6005
rfoot -15.9564 -3.61386
rtoes 4.46345
lfemur -1.31337 -2.12211 -22.1689
ltibia 12.1529
lfoot -9.83704 6.91988
ltoes -13.3518
372
root -0.0581771 18.0123 -0.865267 3.93714 -11.109 1.6248
lowerback -0.058298 -2.13885 -3.41543
upperback 0.817488 -2.85676 2.33781
thorax 1.16033 -1.47283 4.28616
lowerneck -26.0251 0.154714 -8.3327
upperneck 23.3685 2.72199 2.90285
head 11.8258 0.842446 2.93694
rclavicle -5.51627e-014 1.51076e-014
rhumerus -30.7352 -0.721107 -81.5246
rradius 31.8471
rwrist 19.2235
rhand -18.3181 8.55681
rfingers 7.12502
rthumb 7.96337 -21.2732
lclavicle -5.51627e-014 1.51076e-014
lhumerus 6.2878 -14.7888 78.1234
lradius 83.57
lwrist 6.04852
lhand -30.9407 30.0163
lfingers 7.12502
lthumb -4.22584 59.9541
rfemur -10.5987 9.28567 14.3215
rtibia 25.6091
rfoot -15.8932 -3.49402
rtoes 4.66555
lfemur -1.42697 -2.05305 -22.1751
ltibia 12.1821
lfoot -9.83272 6.96455
ltoes -13.4452
373
root -0.0576745 18.0129 -0.871475 4.04594 -11.1804 1.61227
lowerback -0.0753887 -2.13837 -3.42065
upperback 0.759215 -2.8554 2.32545
thorax 1.10942 -1.46991 4.27699
lowerneck -25.9158 0.184373 -8.31998
upperneck 23.4992 2.7565 2.8786
head 11.8544 0.851129 2.93325
rclavicle -8.15017e-015 -2.46493e-014
rhumerus -30.8157 -0.960314 -81.4977
rradius 31.7502
rwrist 19.2604
rhand -18.1777 8.17162
rfingers 7.12502
rthumb 8.09879 -21.6532
lclavicle -8.15017e-015 -2.46493e-014
lhumerus 5.58407 -14.4613 78.6988
lradius 83.1436
lwrist 5.9059
lhand -30.8407 29.8
lfingers 7.12502
lthumb -4.12928 59.7397
rfemur -10.7727 9.31423 14.3069
rtibia 25.6273
rfoot -15.8254 -3.50554
rtoes 4.66769
lfemur -1.54557 -1.96006 -22.1608
ltibia 12.1465
lfoot -9.8097 6.93439
ltoes -13.5086
374
root -0.0573002 18.0145 -0.876044 4.08266 -11.2253 1.6001
lowerback -0.068115 -2.12478 -3.45721
upperback 0.744927 -2.83739 2.33889
thorax 1.09136 -1.46065 4.31255
lowerneck -25.8857 0.185414 -8.36454
upperneck 23.6274 2.7826 2.85207
head 11.8971 0.850345 2.93786
rclavicle 4.73108e-014 -4.77083e-015
rhumerus -30.8284 -1.26838 -81.3838
rradius 31.5823
rwrist 19.3428
rhand -18.2356 8.26612
rfingers 7.12502
rthumb 8.04293 -21.5608
lclavicle 4.73108e-014 -4.77083e-015
lhumerus 4.95696 -14.1537 79.276
lradius 82.7559
lwrist 5.67121
lhand -30.8194 29.7447
lfingers 7.12502
lthumb -4.1087 59.6848
rfemur -10.8514 9.36595 14.3098
rtibia 25.6454
rfoot -15.7875 -3.54269
rtoes 4.58381
lfemur -1.55799 -1.98599 -22.1468
ltibia 12.0633
lfoot -9.72967 6.97208
ltoes -13.5542
